<svg width="252" height="252" viewBox="0 0 252 252" fill="none" xmlns="http://www.w3.org/2000/svg">
<path d="M59.8541 148.057C60.8541 151.698 62.3958 154.734 61.2864 158.562C60.1822 162.359 57.026 165.49 54.1562 168.052C47.3697 174.115 38.3697 178.495 29.2551 179.25C29.026 179.266 29.0208 179.625 29.2551 179.609C42.2812 178.766 53.1406 175.516 63.4062 167.172C71.0156 160.995 77.9791 147.62 65.4947 142.417C62.1406 141.021 59.0155 145.016 59.8541 148.057Z" fill="white"/>
<path d="M54.1354 111.792C51.0104 111.927 47.8541 112.635 44.7552 114.224C37.7604 117.802 34.6927 126.823 41.2239 132.557C48.1145 138.604 55.6406 132.766 55.3854 124.792C55.3489 123.583 54.9375 122.625 54.3177 121.891C57.9791 122.411 61.6666 123.547 62.6875 123.974C67.6875 126.068 71.6979 129.792 74.5364 134.391C80.1562 143.5 79.5312 154.432 73.3125 162.734C55.0572 187.12 33.8593 183.073 31.2187 183.406C17.1562 184.078 8.85933 168.776 24.8645 162.87C25.0937 162.911 25.1875 162.552 24.9583 162.521C19.1093 161.677 13.5572 164.411 12.9583 171.031C12.25 178.911 20.2604 184.151 26.9166 185.609C50.6562 190.812 83.9948 173.151 86.4687 147.625C87.5156 136.875 81.0833 124.854 71.7291 117.797C78.026 119.786 83.7291 124.151 85.8177 130.422C85.8906 130.641 86.2291 130.547 86.1666 130.323C84.552 124.812 82.9791 120.068 79.0208 115.708C75.8906 112.26 71.9635 109.729 67.6562 108.094C83.1354 106.958 87.5781 125.573 88.8125 132.495C90.7656 143.437 89.8697 154.385 85.9843 164.812C85.9114 165.01 86.2187 165.13 86.3177 164.953C93.8125 151.239 97.4531 135.135 92.677 121.307C96.4375 125.792 98.776 131.87 96.9583 137.463C96.8854 137.693 97.2239 137.771 97.3125 137.562C100.292 130.437 101.135 123.057 97.7916 116.641C101.333 120.448 102.443 126.797 101.719 133.078C100.641 142.479 95.4947 150.958 89.9479 158.443C89.8229 158.604 90.0937 158.812 90.2291 158.661C100.141 147.568 112.323 135.588 107.49 119.271C104.932 110.63 92.1197 98.7603 83.7552 107.255C82.3177 105.828 80.7812 104.443 79.0208 103.146C72.9166 98.6562 63.3541 94.9582 56.8437 101.052C53.4635 104.219 52.7239 108.344 54.1354 111.792Z" fill="white"/>
<path d="M127.026 131.88C122.135 136.411 116.036 139.917 109.755 142.156C111.995 135.875 115.5 129.776 120.031 124.891C123.635 121 127.927 119.802 132.604 119.307C132.109 123.984 130.911 128.276 127.026 131.88ZM115.547 119.088C109.76 126.062 110.161 134.338 109.062 142.849C117.573 141.75 125.849 142.151 132.823 136.364C139.745 130.62 141.885 121.937 142.312 113.255C142.463 110.187 140.765 109.62 138.656 109.599C129.963 109.521 121.291 112.167 115.547 119.088Z" fill="white"/>
<path d="M43.4843 149.74C45.9583 154.682 47.9531 158.609 45.026 164.083C42.0989 169.557 35.2552 173.281 29.1979 173.776C28.9687 173.792 28.9687 174.156 29.1979 174.135C37 173.552 44.5677 172.63 49.8177 166.062C54.3437 160.406 56.2708 149.865 50.1562 144.594C46.4947 141.443 41.2812 145.338 43.4843 149.74Z" fill="white"/>
<mask id="mask0_22_2" style="mask-type:luminance" maskUnits="userSpaceOnUse" x="0" y="0" width="252" height="252">
<path d="M0.708252 251.203L0.708241 0.390625L251.521 0.390614L251.521 251.203L0.708252 251.203Z" fill="white"/>
</mask>
<g mask="url(#mask0_22_2)">
<path d="M3.86449 21.0729C7.3072 39.2812 21.2291 50.8437 32.0989 65.2031C29.703 62.9271 26.8332 61.0833 23.4374 59.8802C15.4062 57.0312 4.10408 60.276 4.79158 70.6042C5.44783 80.5052 17.3593 82.1042 21.5676 73.8281C21.9843 73.0052 22.1457 72.2083 22.151 71.4583C29.8228 75.0312 33.4582 81.5677 33.052 91.0625C32.6405 96.1458 31.453 100.99 29.5312 105.609C29.401 98.3437 24.427 91.4479 16.3332 89.9167C15.6197 89.7812 14.9739 89.7917 14.3957 89.9062C11.2187 89.2969 8.34366 93.9219 11.9218 96.4948C11.9947 96.5469 12.052 96.6094 12.1249 96.6667C12.4374 97.0417 12.8124 97.3802 13.2864 97.6458C22.0207 105.125 20.8957 116.781 17.0207 127.203C16.4374 128.135 16.0051 129.172 15.2968 130.005C2.52075 145 -2.0105 153.609 5.46346 198.443C8.06763 214.068 3.19783 230.599 0.708252 251.203C21.3124 248.714 37.8437 243.844 53.4687 246.448C98.3072 253.922 106.911 249.391 121.911 236.615C122.745 235.906 123.776 235.474 124.708 234.891C135.135 231.016 146.786 229.891 154.271 238.625C154.536 239.099 154.87 239.479 155.25 239.786C155.302 239.865 155.365 239.917 155.422 239.995C157.99 243.568 162.615 240.693 162.005 237.516C162.12 236.937 162.13 236.292 161.995 235.578C160.463 227.49 153.573 222.51 146.302 222.38C150.927 220.458 155.771 219.271 160.849 218.865C170.344 218.453 176.88 222.089 180.458 229.766C179.703 229.766 178.906 229.927 178.088 230.344C169.807 234.552 171.411 246.464 181.312 247.125C191.641 247.812 194.88 236.505 192.036 228.474C190.833 225.078 188.99 222.208 186.713 219.812C201.068 230.682 212.63 244.604 230.838 248.047C255.911 252.792 258.177 224.031 237.708 223.927C235.651 223.917 232.031 224.792 231 227.88C228.443 235.568 237.891 240.875 241.854 234.771C235.786 245.859 213.792 239.88 196.854 223.828C191.151 218.427 184.432 215.521 177.328 213.484C171.052 210.896 163.781 210.307 157.062 211.641C137.833 215.453 124.792 231.432 108.208 240.203C110.604 237.245 111.984 233.427 111.74 228.99C111.38 222.583 106.229 212.031 92.1145 215.036C90.4999 215.38 89.9947 217.411 91.1562 218.661C96.6718 224.604 97.953 234.807 92.802 241.448C89.4739 244.411 82.5416 242.568 80.1301 242.286C55.2812 237.62 20.3072 240.255 7.04679 245.089C6.94783 245.125 6.78638 244.964 6.82284 244.865C11.6562 231.604 14.2968 196.63 9.62492 171.781C9.34887 169.37 7.49992 162.437 10.4635 159.109C17.1041 153.958 27.3072 155.24 33.2499 160.755C34.4999 161.917 36.5312 161.411 36.8749 159.802C39.8801 145.682 29.328 140.531 22.927 140.177C18.4843 139.927 14.6718 141.312 11.7082 143.703C20.4791 127.12 36.4582 114.078 40.276 94.8542C41.6041 88.1302 41.0155 80.8646 38.427 74.5885C36.3957 67.4844 33.4843 60.7604 28.0832 55.0573C12.0312 38.1198 6.0572 16.125 17.1405 10.0573C11.0364 14.026 16.3437 23.474 24.0312 20.9115C27.1249 19.8802 27.9947 16.2604 27.9843 14.2031C27.8801 -6.26044 -0.875092 -3.9948 3.86449 21.0729Z" fill="white"/>
</g>
<path d="M19.2135 57.1092C19.3645 57.1353 19.5208 56.9478 19.3801 56.828C16.4791 54.2967 10.8593 51.8436 7.49993 54.6353C5.7343 56.104 7.24472 58.9582 9.30201 58.9842C11.0676 58.9998 12.2291 57.8905 13.8541 57.3853C15.6197 56.8436 17.401 56.7967 19.2135 57.1092Z" fill="white"/>
<path d="M15.2656 51.3592C14.0937 50.5415 13.1875 49.1613 12.276 48.078C11.4583 47.104 10.6458 46.13 9.8281 45.1613C9.40622 44.6613 8.56768 44.4842 7.95831 44.6665C7.82289 44.7082 7.68747 44.7498 7.55206 44.7915C6.97393 44.9686 6.55727 45.4946 6.55206 46.104C6.55206 46.2394 6.55206 46.38 6.55206 46.5207C6.54685 47.13 6.90622 47.9165 7.49997 48.1769C8.67185 48.6873 9.84372 49.1977 11.0156 49.7082C12.3229 50.2759 13.9218 50.755 15.0469 51.6457C15.25 51.8071 15.4791 51.5102 15.2656 51.3592Z" fill="white"/>
<path d="M17.0052 119.005C17.5624 113.161 16.6406 104.984 10.6197 102.463C9.17703 101.859 7.58328 103.365 7.60932 104.755C7.69266 109.135 10.901 112.75 11.9583 117.021C13.5416 123.437 12.6093 130.948 8.44787 136.245C8.30724 136.422 8.55203 136.677 8.70307 136.5C13.2083 131.26 16.3385 126.057 17.0052 119.005Z" fill="white"/>
<path d="M51.078 50.6458C48.2499 48.9636 44.6353 48.7552 41.5988 51.0625C39.4582 52.6875 37.9843 55.0938 37.5676 57.7552C37.052 60.9896 38.2811 63.4479 38.9999 66.4896C39.0572 66.724 39.3853 66.6198 39.3541 66.3958C38.9999 63.9948 40.7863 58.0417 43.9738 57.4063C37.0155 69.75 46.0572 89.8854 41.1145 102.849C41.0416 103.042 41.3541 103.172 41.4478 102.99C44.8436 96.1823 44.9322 86.5521 46.5416 78.1511C46.5936 78.9531 46.6509 79.75 46.7707 80.5104C46.802 80.6927 47.052 80.6563 47.0988 80.5104C47.7916 78.4636 48.7499 76.5938 49.927 74.8646C49.0207 77.7761 48.3801 80.5417 48.0311 82.1302C45.5207 93.5521 45.3853 106.177 35.9686 114.536C35.8176 114.672 36.0207 114.943 36.1874 114.818C50.9478 104.068 49.953 85.599 61.453 72.8125C65.0676 68.7969 70.7811 65.5156 69.0832 59.0521C68.0728 55.1927 64.9426 53.1667 61.4478 52.5104C60.3905 49.7813 57.7759 47.8698 54.1874 49.2136C53.0468 49.6406 52.0311 50.1302 51.078 50.6458Z" fill="white"/>
<path d="M25.2864 33.3905C22.2499 38.3488 23.6249 44.328 25.7343 49.328C25.8697 49.6561 26.4114 49.6561 26.401 49.2394C26.3228 45.9634 26.4322 42.1509 28.2812 39.3019C26.3437 45.7551 28.151 52.8644 33.9479 58.0572C34.0624 58.1613 34.2968 58.0624 34.2291 57.8957C32.0833 52.2915 32.8906 47.4894 36.026 42.5676C38.2291 39.1144 42.2708 37.2915 42.5104 32.953C42.6093 31.2447 41.2708 29.8697 39.7708 29.354C39.6562 29.3124 39.5416 29.2707 39.427 29.2342C39.0624 28.9842 38.6562 28.7603 38.1562 28.5988C33.3541 27.0467 27.9166 29.0884 25.2864 33.3905Z" fill="white"/>
<path d="M109.495 186.417C104.292 173.932 90.9166 180.896 84.7395 188.505C76.3958 198.771 73.1458 209.63 72.302 222.656C72.2864 222.891 72.6458 222.885 72.6666 222.656C73.4166 213.542 77.7968 204.542 83.8593 197.755C86.4218 194.885 89.552 191.729 93.3489 190.63C97.177 189.516 100.213 191.057 103.854 192.057C106.896 192.896 110.891 189.771 109.495 186.417Z" fill="white"/>
<path d="M25.4478 223.656C27.1301 222.5 28.9738 221.667 30.8905 221.021C30.2447 222.937 29.4113 224.781 28.2603 226.464C26.5572 228.948 20.9738 233.823 17.3957 234.516C18.7134 230.146 22.9686 225.354 25.4478 223.656ZM30.6822 204.302C36.328 202.807 42.2343 203.427 48.1561 203.755C48.4843 209.677 49.104 215.583 47.6093 221.229C45.4738 229.302 35.7499 231.219 26.4686 232.776C28.4165 232.141 30.328 231.323 32.0884 230.292C37.1874 227.307 40.5936 222.771 42.1353 216.948C44.0155 209.823 41.354 208.463 34.9634 209.781C29.0676 210.995 24.604 214.724 21.6197 219.823C20.5884 221.583 19.7707 223.495 19.1405 225.443C20.6926 216.161 22.6145 206.443 30.6822 204.302ZM52.703 227.016C59.0572 217.828 56.8228 203.318 59.2238 192.823C59.2395 192.771 59.2343 192.719 59.2447 192.667C59.1926 192.677 59.1457 192.672 59.0884 192.687C48.5936 195.088 34.0832 192.854 24.8957 199.208C13.0103 207.427 18.8176 223.318 16.5468 235.37C28.5936 233.094 44.4843 238.901 52.703 227.016Z" fill="white"/>
<path d="M93.4685 161.963C100.953 156.417 109.432 151.271 118.833 150.193C125.114 149.474 131.463 150.578 135.271 154.12C128.854 150.776 121.474 151.625 114.349 154.604C114.14 154.693 114.218 155.026 114.448 154.953C120.041 153.135 126.12 155.474 130.604 159.234C116.776 154.463 100.672 158.099 86.9581 165.599C86.781 165.693 86.9008 166 87.0987 165.927C97.5258 162.042 108.474 161.146 119.416 163.099C126.338 164.333 144.953 168.776 143.817 184.26C142.187 179.948 139.651 176.021 136.203 172.891C131.849 168.937 127.099 167.359 121.588 165.75C121.364 165.682 121.271 166.026 121.495 166.099C127.76 168.182 132.125 173.885 134.114 180.182C127.057 170.828 115.041 164.401 104.291 165.443C78.7602 167.917 61.0987 201.255 66.3018 224.995C67.7602 231.651 72.9998 239.661 80.88 238.953C87.4998 238.354 90.2341 232.802 89.3904 226.953C89.3591 226.729 88.9998 226.818 89.0414 227.052C83.1352 243.052 67.8331 234.755 68.505 220.698C68.8383 218.057 64.7914 196.859 89.1768 178.599C97.4841 172.38 108.411 171.755 117.521 177.375C122.12 180.214 125.849 184.224 127.937 189.224C128.37 190.25 129.5 193.932 130.021 197.594C129.286 196.974 128.328 196.562 127.12 196.526C119.146 196.271 113.307 203.802 119.354 210.693C125.088 217.219 134.114 214.151 137.687 207.156C139.276 204.062 139.984 200.906 140.12 197.776C143.573 199.193 147.692 198.453 150.859 195.068C156.953 188.557 153.255 179 148.765 172.891C147.474 171.13 146.083 169.594 144.656 168.156C153.151 159.792 141.281 146.979 132.646 144.422C116.323 139.588 104.349 151.771 93.2497 161.682C93.0987 161.818 93.307 162.088 93.4685 161.963Z" fill="white"/>
<path d="M78.1354 222.713C78.6302 216.656 82.3541 209.812 87.8281 206.885C93.302 203.963 97.2291 205.953 102.172 208.427C106.573 210.625 110.469 205.417 107.318 201.755C102.047 195.641 91.5052 197.568 85.8489 202.094C79.2812 207.344 78.3593 214.911 77.776 222.713C77.7552 222.943 78.1198 222.943 78.1354 222.713Z" fill="white"/>
<path d="M195.083 232.531C194.963 232.391 194.776 232.547 194.802 232.698C195.114 234.51 195.073 236.292 194.526 238.057C194.021 239.682 192.911 240.844 192.932 242.609C192.953 244.667 195.812 246.182 197.281 244.411C200.068 241.052 197.614 235.432 195.083 232.531Z" fill="white"/>
<path d="M205.807 245.359C206.417 245.354 206.943 244.937 207.12 244.359C207.161 244.224 207.203 244.088 207.245 243.953C207.427 243.344 207.25 242.505 206.75 242.083C205.781 241.266 204.807 240.453 203.838 239.635C202.755 238.724 201.37 237.818 200.552 236.646C200.401 236.432 200.104 236.667 200.265 236.87C201.156 237.99 201.635 239.588 202.203 240.896C202.713 242.068 203.224 243.24 203.734 244.411C203.995 245.005 204.781 245.365 205.39 245.359C205.531 245.359 205.672 245.359 205.807 245.359Z" fill="white"/>
<path d="M147.156 244.302C148.547 244.328 150.052 242.734 149.448 241.292C146.927 235.276 138.75 234.349 132.906 234.906C125.854 235.578 120.651 238.703 115.416 243.208C115.234 243.359 115.489 243.604 115.672 243.464C120.963 239.302 128.474 238.37 134.89 239.953C139.166 241.01 142.781 244.224 147.156 244.302Z" fill="white"/>
<path d="M179.099 190.458C166.312 201.958 147.844 200.969 137.094 215.724C136.969 215.891 137.245 216.094 137.375 215.943C145.74 206.526 158.359 206.396 169.786 203.88C171.375 203.531 174.135 202.891 177.052 201.984C175.318 203.167 173.448 204.12 171.401 204.812C171.255 204.859 171.219 205.109 171.401 205.141C172.161 205.26 172.958 205.323 173.76 205.37C165.359 206.979 155.729 207.068 148.922 210.469C148.74 210.557 148.87 210.87 149.062 210.797C162.026 205.859 182.161 214.896 194.505 207.937C193.875 211.125 187.917 212.911 185.521 212.562C185.292 212.526 185.187 212.854 185.422 212.911C188.464 213.63 190.922 214.859 194.161 214.349C196.818 213.927 199.224 212.453 200.854 210.312C203.156 207.276 202.948 203.667 201.266 200.838C201.786 199.88 202.271 198.864 202.698 197.724C204.042 194.135 202.135 191.521 199.401 190.463C198.745 186.974 196.719 183.844 192.859 182.828C186.396 181.13 183.115 186.844 179.099 190.458Z" fill="white"/>
<path d="M194.021 217.682C193.849 217.615 193.75 217.849 193.854 217.963C199.047 223.76 206.156 225.568 212.609 223.63C209.76 225.484 205.953 225.594 202.672 225.51C202.255 225.505 202.255 226.042 202.583 226.182C207.583 228.292 213.568 229.661 218.521 226.63C222.823 223.995 224.865 218.562 223.312 213.755C223.151 213.255 222.927 212.849 222.682 212.484C222.641 212.37 222.599 212.255 222.562 212.141C222.042 210.641 220.667 209.307 218.958 209.401C214.62 209.641 212.797 213.682 209.344 215.885C204.422 219.026 199.62 219.828 194.021 217.682Z" fill="white"/>
</svg>
