<svg width="295" height="295" viewBox="0 0 295 295" fill="none" xmlns="http://www.w3.org/2000/svg">
<path fill-rule="evenodd" clip-rule="evenodd" d="M208.646 266.963C190.75 253.812 165.771 254.353 148.354 269.004C153.401 268.645 157.901 272.249 158.682 277.233C159.464 282.218 156.344 287.02 151.479 288.28C147.031 289.124 142.469 287.499 139.526 284.077C136.583 280.598 135.745 275.853 137.365 271.588C143.672 260.78 154.422 253.275 166.792 251.108C174.839 249.728 185.047 250.572 193.813 253.572C186.427 247.088 177.417 239.702 164.927 231.353C151.479 225.348 135.323 227.27 123.432 237.239C127.516 236.999 131.12 239.879 131.781 243.905C132.443 247.926 129.917 251.832 125.953 252.853C122.354 253.515 118.688 252.254 116.287 249.431C113.948 246.608 113.224 242.765 114.547 239.343C119.651 230.572 128.36 224.51 138.328 222.827C141.151 222.348 144.271 222.228 147.516 222.405C117.427 211.358 76.4741 215.499 69.2658 245.525C67.1043 254.416 69.0887 263.843 74.6147 271.166C78.5158 277.291 85.7814 280.416 92.9272 279.036C100.073 277.655 105.599 272.067 106.979 264.921C105.177 266.546 102.776 267.265 100.375 266.905C97.9741 266.546 95.9324 265.041 94.7293 262.942C92.6876 259.52 92.6304 255.254 94.6095 251.77C96.5887 248.291 100.255 246.187 104.276 246.187C108.24 246.187 111.906 248.411 113.886 251.89C118.688 260.838 116.948 271.947 109.563 278.916C102.177 285.942 91.0679 287.14 82.3595 281.858C72.9897 276.452 66.5679 267.145 64.7658 256.515C63.021 245.885 66.0835 234.957 73.172 226.848C83.1981 216.223 106.802 202.713 119.708 193.942C125.656 189.499 128.057 186.978 132.62 182.233L127.276 184.817C121.333 180.129 130.578 168.244 137.724 176.77C139.708 179.108 139.886 181.452 138.865 183.733C135.865 190.702 122.172 196.947 117.25 200.426C131.599 195.864 152.74 190.942 160.724 177.01C159.766 199.89 121.87 202.77 102.057 210.577C124.636 203.791 150.698 207.093 171.474 221.744C175.557 225.051 179.458 228.411 183.302 231.775C204.985 251.171 220.776 268.286 243.354 279.515C273.557 291.103 291.276 266.483 274.761 251.713C270.016 247.447 263.349 246.129 257.344 248.171C272.599 233.754 290.193 245.588 293.797 261.197C299.922 288.223 265.271 302.452 241.495 290.983C229.245 285.161 217.833 274.89 208.646 266.963ZM28.4949 86.8116C41.646 104.707 41.1043 129.687 26.4533 147.103C26.8126 142.062 23.2085 137.556 18.2241 136.775C13.2397 135.994 8.43764 139.119 7.17722 143.983C6.33347 148.426 7.95847 152.989 11.3803 155.931C14.8647 158.874 19.6043 159.713 23.8699 158.093C34.6772 151.786 42.1876 141.041 44.3491 128.666C45.7293 120.619 44.8855 110.411 41.8855 101.645C48.3699 109.03 55.7553 118.041 64.1043 130.53C70.047 143.983 68.1876 160.135 58.2189 172.025C58.4585 167.942 55.5783 164.338 51.5522 163.676C47.5314 163.015 43.6251 165.541 42.6043 169.504C41.9428 173.103 43.2085 176.77 46.0262 179.171C48.8491 181.515 52.6928 182.233 56.1147 180.911C64.8856 175.806 70.9481 167.098 72.6303 157.135C73.1095 154.312 73.2293 151.187 73.0522 147.942C84.0991 178.03 79.9585 218.983 49.9324 226.192C41.047 228.353 31.6147 226.369 24.2918 220.848C18.1668 216.942 15.0418 209.676 16.422 202.53C17.8074 195.385 23.3908 189.858 30.5366 188.478C28.9168 190.28 28.1928 192.681 28.5522 195.082C28.9168 197.483 30.4168 199.525 32.5158 200.728C35.9428 202.77 40.2033 202.832 43.6876 200.848C47.172 198.869 49.271 195.202 49.271 191.181C49.271 187.218 47.0522 183.556 43.5678 181.572C34.6199 176.77 23.5106 178.51 16.5418 185.895C9.51576 193.28 8.31785 204.39 13.5991 213.098C19.0053 222.468 28.3126 228.89 38.9428 230.692C49.5731 232.437 60.5001 229.374 68.6095 222.286C79.2345 212.26 92.7501 188.661 101.516 175.749C105.958 169.801 108.479 167.4 113.224 162.838L110.641 168.181C115.328 174.124 127.219 164.879 118.688 157.733C116.349 155.749 113.948 155.572 111.724 156.593C104.761 159.593 98.5106 173.286 95.0314 178.207C99.5939 163.858 104.516 142.718 118.448 134.733C95.5678 135.692 92.6876 173.588 84.8803 193.4C91.6668 170.822 88.3647 144.76 73.7137 123.983C70.4116 119.9 67.047 115.999 63.6824 112.155C44.4064 90.3585 27.2918 74.5616 16.0626 51.9835C4.47409 21.7804 29.0939 4.06162 43.8647 20.5772C48.1303 25.322 49.4533 31.9887 47.4116 37.9939C61.823 22.7387 49.9897 5.14495 34.3803 1.54078C7.35429 -4.58422 -6.87487 30.0668 4.59388 53.8429C10.297 66.2179 20.5678 77.6241 28.4949 86.8116ZM5.79702 289.666C14.7449 285.582 24.6512 284.02 34.4376 285.098C30.7762 276.213 34.021 266.004 42.1251 260.9C38.2241 269.004 40.2033 278.733 46.9272 284.681C50.4741 287.801 54.9168 289.483 59.422 289.666L61.0991 289.666C64.5835 289.541 68.0679 288.463 71.1876 286.478C62.422 281.916 56.0574 273.812 53.7137 264.202C51.3751 254.593 53.3543 244.504 59.0574 236.4C50.9533 242.166 40.8647 244.082 31.2553 241.744C21.646 239.4 13.5418 233.036 8.9793 224.327C6.99493 227.39 5.91681 230.874 5.79701 234.416L5.79701 236.098C5.9741 240.603 7.65639 245.046 10.7814 248.588C16.7241 255.317 26.4533 257.296 34.5574 253.395C29.4533 261.499 19.2449 264.744 10.3595 261.077C11.4376 270.806 9.88035 280.718 5.79702 289.666Z" fill="white"/>
</svg>
