<svg viewBox="0 0 204 52" fill="none" xmlns="http://www.w3.org/2000/svg">
  <path
      d="M169.071 36.0166C169.071 35.9473 169.146 35.9126 169.302 35.9126C169.409 35.9126 169.51 35.9328 169.603 35.9704C169.695 36.0021 169.741 36.057 169.741 36.1321C169.409 38.4653 169.245 40.9082 169.245 43.4551C169.245 43.7496 169.178 43.9604 169.048 44.0904C168.915 44.2232 168.684 44.2867 168.355 44.2867H145.116C145.038 44.2867 145 44.177 145 43.9518C145 43.7294 145.038 43.6168 145.116 43.6168C146.516 43.6168 147.541 43.5244 148.188 43.3396C148.835 43.1548 149.277 42.7967 149.516 42.2654C149.762 41.7283 149.886 40.9024 149.886 39.7936V14.1052C149.886 12.9964 149.762 12.1849 149.516 11.6681C149.277 11.1541 148.835 10.796 148.188 10.5939C147.541 10.3859 146.516 10.282 145.116 10.282C145.038 10.282 145 10.1723 145 9.94703C145 9.72468 145.038 9.61206 145.116 9.61206H167.408C167.746 9.61206 167.916 9.77954 167.916 10.1087L168.02 16.9351C168.02 17.0506 167.928 17.117 167.743 17.1315C167.558 17.1488 167.446 17.1026 167.408 16.9928C167.298 15.0293 166.706 13.5046 165.629 12.4188C164.558 11.3273 163.137 10.7787 161.367 10.7787H157.983C156.689 10.7787 155.733 10.8826 155.118 11.0905C154.509 11.2927 154.084 11.6421 153.848 12.1416C153.608 12.6441 153.49 13.3891 153.49 14.3824V25.6442H160.258C162.028 25.6442 163.29 25.3497 164.047 24.7548C164.809 24.1628 165.19 23.1666 165.19 21.7632C165.19 21.6881 165.3 21.6477 165.525 21.6477C165.748 21.6477 165.86 21.6881 165.86 21.7632L165.802 26.2564C165.802 27.3277 165.82 28.1391 165.86 28.6935L165.918 31.3617C165.918 31.4397 165.805 31.4772 165.583 31.4772C165.358 31.4772 165.248 31.4397 165.248 31.3617C165.248 29.7389 164.847 28.5751 164.047 27.8734C163.253 27.166 161.933 26.8108 160.085 26.8108H153.49V39.5741C153.49 40.6079 153.596 41.3645 153.813 41.8496C154.035 42.3289 154.443 42.6581 155.037 42.8429C155.629 43.0277 156.553 43.1201 157.81 43.1201H162.256C164.027 43.1201 165.505 42.4935 166.692 41.2374C167.876 39.9842 168.67 38.2429 169.071 36.0166Z"
      fill="#282828"/>
  <path
      d="M186.99 16.1036C186.99 17.5445 187.34 18.8035 188.041 19.8806C188.749 20.9519 189.601 21.85 190.594 22.5719C191.593 23.288 193.002 24.2005 194.822 25.3093C196.739 26.4586 198.232 27.4202 199.303 28.197C200.38 28.9766 201.296 29.9642 202.052 31.1655C202.814 32.3667 203.196 33.799 203.196 35.4623C203.196 37.241 202.748 38.8552 201.856 40.3019C200.969 41.7429 199.667 42.8777 197.952 43.7093C196.234 44.541 194.169 44.9568 191.761 44.9568C188.919 44.9568 186.312 44.31 183.941 43.0163C183.756 42.9008 183.635 42.7709 183.583 42.6236C183.528 42.4792 183.482 42.254 183.444 41.9537L182.728 34.4112C182.688 34.2668 182.769 34.1744 182.971 34.1339C183.179 34.0964 183.297 34.1513 183.329 34.2957C183.921 36.9609 185.021 39.2566 186.632 41.1798C188.241 43.1058 190.377 44.0674 193.043 44.0674C194.891 44.0674 196.453 43.5592 197.732 42.5427C199.009 41.5263 199.65 39.9063 199.65 37.68C199.65 36.0167 199.274 34.5786 198.529 33.3601C197.79 32.1357 196.892 31.1279 195.838 30.3338C194.79 29.5426 193.357 28.607 191.541 27.527C189.768 26.4586 188.376 25.5346 187.36 24.7549C186.343 23.9781 185.48 22.9992 184.773 21.8211C184.071 20.6372 183.721 19.2511 183.721 17.6629C183.721 15.809 184.209 14.2266 185.188 12.9156C186.173 11.5989 187.452 10.6171 189.023 9.97024C190.594 9.32341 192.263 9 194.036 9C196.222 9 198.385 9.44758 200.527 10.3399C201.082 10.5247 201.359 10.8365 201.359 11.2755L201.752 17.6629C201.752 17.8102 201.659 17.8824 201.475 17.8824C201.29 17.8824 201.177 17.8102 201.14 17.6629C200.845 15.7397 200.054 13.9523 198.76 12.3035C197.467 10.6575 195.598 9.83164 193.158 9.83164C191.085 9.83164 189.537 10.438 188.515 11.6451C187.498 12.8463 186.99 14.3335 186.99 16.1036Z"
      fill="#282828"/>
  <path
      d="M4.27225 16.1614C4.27225 17.6024 4.62165 18.8614 5.32335 19.9385C6.03082 21.0098 6.88267 21.9078 7.87602 22.6297C8.87514 23.3459 10.2843 24.2584 12.1035 25.3672C14.0209 26.5165 15.5138 27.4781 16.5851 28.2548C17.6622 29.0345 18.5776 30.0221 19.3341 31.2233C20.0965 32.4246 20.4776 33.8568 20.4776 35.5201C20.4776 37.2989 20.0301 38.9131 19.1378 40.3598C18.2513 41.8007 16.949 42.9356 15.2337 43.7672C13.5156 44.5988 11.4509 45.0147 9.04262 45.0147C6.20119 45.0147 3.59366 44.3678 1.22291 43.0742C1.0381 42.9587 0.916823 42.8287 0.864846 42.6814C0.80998 42.5371 0.763778 42.3118 0.726239 42.0115L0.0101066 34.469C-0.0303199 34.3246 0.0505331 34.2322 0.252668 34.1918C0.460577 34.1543 0.57897 34.2091 0.610734 34.3535C1.2027 37.0188 2.30289 39.3145 3.91418 41.2376C5.5226 43.1637 7.65944 44.1253 10.3247 44.1253C12.1728 44.1253 13.735 43.617 15.0142 42.6006C16.2906 41.5841 16.9316 39.9642 16.9316 37.7378C16.9316 36.0745 16.5562 34.6365 15.8112 33.4179C15.072 32.1936 14.1739 31.1858 13.12 30.3917C12.0717 29.6005 10.6395 28.6649 8.82316 27.5849C7.05015 26.5165 5.65831 25.5924 4.64187 24.8128C3.62542 24.036 2.76202 23.0571 2.05455 21.8789C1.35286 20.695 1.00345 19.309 1.00345 17.7208C1.00345 15.8669 1.49146 14.2845 2.47037 12.9735C3.45505 11.6567 4.73427 10.6749 6.30514 10.0281C7.87602 9.38128 9.54507 9.05786 11.3181 9.05786C13.504 9.05786 15.6668 9.50544 17.8095 10.3977C18.3639 10.5825 18.6411 10.8944 18.6411 11.3333L19.0338 17.7208C19.0338 17.868 18.9414 17.9402 18.7566 17.9402C18.5718 17.9402 18.4592 17.868 18.4216 17.7208C18.1271 15.7976 17.3359 14.0101 16.0422 12.3613C14.7486 10.7154 12.8803 9.8895 10.4402 9.8895C8.36691 9.8895 6.81914 10.4959 5.79692 11.7029C4.78047 12.9042 4.27225 14.3913 4.27225 16.1614Z"
      fill="#282828"/>
  <path
      d="M68.6826 43.6747C68.8356 43.6747 68.9136 43.7873 68.9136 44.0096C68.9136 44.2349 68.8356 44.3446 68.6826 44.3446C67.9809 44.3446 66.8922 44.3071 65.4138 44.2291C63.9353 44.1598 62.8611 44.1252 62.1912 44.1252C61.3826 44.1252 60.346 44.1598 59.0841 44.2291C57.9059 44.3071 56.9992 44.3446 56.3697 44.3446C56.2224 44.3446 56.1502 44.2349 56.1502 44.0096C56.1502 43.7873 56.2224 43.6747 56.3697 43.6747C57.7384 43.6747 58.7376 43.5476 59.3613 43.2935C59.9908 43.0336 60.3084 42.586 60.3084 41.9537C60.3084 41.4397 60.0688 40.6456 59.5923 39.5742L53.2049 25.9793H42.717L37.9466 37.2988C37.4297 38.5549 37.1727 39.5916 37.1727 40.4059C37.1727 42.586 38.9862 43.6747 42.613 43.6747C42.7978 43.6747 42.8902 43.7873 42.8902 44.0096C42.8902 44.2349 42.7978 44.3446 42.613 44.3446C41.9431 44.3446 40.9786 44.3071 39.7254 44.2291C38.322 44.1598 37.1034 44.1252 36.0639 44.1252C35.0994 44.1252 33.9906 44.1598 32.7373 44.2291C31.6285 44.3071 30.7044 44.3446 29.9652 44.3446C29.7804 44.3446 29.688 44.2349 29.688 44.0096C29.688 43.7873 29.7804 43.6747 29.9652 43.6747C30.9961 43.6747 31.8739 43.4841 32.5987 43.0972C33.3206 42.7131 34.0079 42.0316 34.6547 41.0527C35.3015 40.068 36.0119 38.6502 36.7916 36.8021L48.4922 9.17326C48.5673 9.05775 48.7002 9 48.885 9C49.0698 9 49.1766 9.05775 49.2084 9.17326L62.3067 36.7444C63.5599 39.479 64.6312 41.3184 65.5177 42.2655C66.41 43.2069 67.464 43.6747 68.6826 43.6747ZM43.2252 24.8127H52.6504L47.6606 14.2786L43.2252 24.8127Z"
      fill="#282828"/>
  <mask id="mask0_54_135" style="mask-type:luminance" maskUnits="userSpaceOnUse" x="77" y="8" width="35" height="44">
    <path d="M77.9734 8.61938H111.239V51.4949H77.9734V8.61938Z" fill="white"/>
  </mask>
  <g mask="url(#mask0_54_135)">
    <mask id="mask1_54_135" style="mask-type:luminance" maskUnits="userSpaceOnUse" x="72" y="8" width="40" height="45">
      <path d="M81.4358 8.50391L111.56 15.9598L102.507 52.5374L72.3831 45.0844L81.4358 8.50391Z" fill="white"/>
    </mask>
    <g mask="url(#mask1_54_135)">
      <mask id="mask2_54_135" style="mask-type:luminance" maskUnits="userSpaceOnUse" x="72" y="8" width="40"
            height="45">
        <path d="M81.4358 8.50391L111.56 15.9598L102.507 52.5374L72.3831 45.0844L81.4358 8.50391Z" fill="white"/>
      </mask>
      <g mask="url(#mask2_54_135)">
        <mask id="mask3_54_135" style="mask-type:luminance" maskUnits="userSpaceOnUse" x="72" y="8" width="40"
              height="45">
          <path d="M81.4358 8.50391L111.56 15.9598L102.507 52.5374L72.3831 45.0844L81.4358 8.50391Z" fill="white"/>
        </mask>
        <g mask="url(#mask3_54_135)">
          <path
              d="M101.834 24.5648L110.589 17.5536C111.306 16.9789 111.069 15.8383 110.182 15.6189L96.5035 12.2346L82.8248 8.84737C81.9383 8.62791 81.1817 9.52596 81.5485 10.3692L86.0127 20.652L90.7773 31.6221L87.7684 43.7762C87.497 44.4086 86.3593 47.1114 84.0463 47.1951L78.219 45.7542L78.0371 46.4819L96.8212 51.131L97.0002 50.4033L91.222 48.971C89.2151 47.8189 89.4577 44.8937 89.4779 44.2006L92.4868 32.0408L101.834 24.5648ZM83.2522 10.4644L96.1512 13.6582L109.05 16.849L101.346 23.0459L101.695 22.7427C101.695 22.7427 96.8327 24.8622 94.2772 20.7155C91.7216 16.566 86.9021 18.8819 86.9021 18.8819L83.2522 10.4644Z"
              fill="#282828"/>
        </g>
      </g>
    </g>
  </g>
  <mask id="mask4_54_135" style="mask-type:luminance" maskUnits="userSpaceOnUse" x="101" y="8" width="35" height="44">
    <path d="M101.629 8.61938H135.634V51.4949H101.629V8.61938Z" fill="white"/>
  </mask>
  <g mask="url(#mask4_54_135)">
    <mask id="mask5_54_135" style="mask-type:luminance" maskUnits="userSpaceOnUse" x="101" y="8" width="40" height="45">
      <path d="M101.441 15.9914L131.559 8.51819L140.635 45.09L110.517 52.5661L101.441 15.9914Z" fill="white"/>
    </mask>
    <g mask="url(#mask5_54_135)">
      <mask id="mask6_54_135" style="mask-type:luminance" maskUnits="userSpaceOnUse" x="101" y="8" width="40"
            height="45">
        <path d="M131.669 8.48926L101.548 15.9653L110.627 52.5372L140.745 45.064L131.669 8.48926Z" fill="white"/>
      </mask>
      <g mask="url(#mask6_54_135)">
        <mask id="mask7_54_135" style="mask-type:luminance" maskUnits="userSpaceOnUse" x="101" y="8" width="40"
              height="45">
          <path d="M131.669 8.48926L101.548 15.9653L110.627 52.5372L140.745 45.064L131.669 8.48926Z" fill="white"/>
        </mask>
        <g mask="url(#mask7_54_135)">
          <path
              d="M111.279 24.5649L102.521 17.5595C101.805 16.9849 102.039 15.8443 102.926 15.6248L116.601 12.229L130.277 8.83598C131.164 8.61652 131.92 9.51169 131.556 10.3549L127.098 20.6406L122.342 31.6165L125.357 43.7677C125.628 44.4001 126.769 47.1 129.082 47.1837L134.909 45.737L135.091 46.4676L116.31 51.1282L116.131 50.3977L121.909 48.9654C123.913 47.8075 123.67 44.8852 123.65 44.1921L120.632 32.0323L111.279 24.5649ZM129.853 10.4531L116.957 13.6526L104.06 16.8549L111.767 23.046L111.418 22.7399C111.418 22.7399 116.281 24.8595 118.833 20.7099C121.386 16.5604 126.209 18.8705 126.209 18.8705L129.853 10.4531Z"
              fill="#282828"/>
        </g>
      </g>
    </g>
  </g>
  <mask id="mask8_54_135" style="mask-type:luminance" maskUnits="userSpaceOnUse" x="79" y="0" width="56" height="11">
    <path d="M79.4492 0.768066H134.311V10.7419H79.4492V0.768066Z" fill="white"/>
  </mask>
  <g mask="url(#mask8_54_135)">
    <path
        d="M107.627 1.5218V10.0547C107.627 10.4908 107.263 10.8546 106.827 10.8546C106.391 10.8546 106.027 10.4908 106.027 10.0547V1.5218C106.027 1.08288 106.391 0.721924 106.827 0.721924C107.263 0.721924 107.627 1.08288 107.627 1.5218ZM111.566 10.5861C111.811 10.5861 112.068 10.4706 112.218 10.2453L116.125 4.75306C116.382 4.38922 116.296 3.88966 115.935 3.63266C115.574 3.37566 115.071 3.46229 114.817 3.82324L110.907 9.3184C110.65 9.67936 110.737 10.1818 111.098 10.4388C111.237 10.5341 111.395 10.5861 111.557 10.5861H111.566ZM101.436 10.2453C101.598 10.4706 101.84 10.5861 102.086 10.5861C102.247 10.5861 102.406 10.5428 102.545 10.4388C102.906 10.1818 102.992 9.67936 102.735 9.3184L98.8255 3.82324C98.5714 3.46229 98.0689 3.37566 97.708 3.63266C97.347 3.88966 97.2604 4.38922 97.5174 4.75306L101.424 10.2453H101.436ZM104.142 16.0264L100.521 32.6967C99.6456 36.7191 96.2815 39.5779 92.3918 39.9822L89.9113 51.3941L90.7401 51.576C91.4967 51.7377 92.1579 52.194 92.5853 52.8552C92.9982 53.5165 93.1484 54.2962 92.9896 55.0643L92.5304 57.1434C92.4467 57.5187 92.1146 57.7729 91.7537 57.7729C91.6988 57.7729 91.6353 57.7729 91.5833 57.7526L80.0472 55.2346C79.8422 55.1913 79.6631 55.0643 79.5448 54.8823C79.4292 54.7004 79.3946 54.4896 79.4379 54.2759L79.897 52.194C80.0559 51.4258 80.515 50.7761 81.1763 50.3488C81.8346 49.9243 82.623 49.7857 83.3911 49.956L84.1996 50.138L86.683 38.7232C85.4471 37.9868 84.3815 36.9848 83.5817 35.7373C82.2389 33.6351 81.7827 31.1402 82.314 28.7088L85.938 12.0386C85.9784 11.8335 86.1083 11.6545 86.2874 11.5361C86.4693 11.4177 86.683 11.3859 86.8851 11.4293L103.535 15.0561C103.971 15.1514 104.237 15.5788 104.142 16.0062V16.0264ZM86.0852 18.8534H101.895L102.418 16.4624L87.3211 13.1792L86.0852 18.8534ZM88.173 51.8417L90.7516 40.0139C90.3156 39.9822 89.868 39.9302 89.432 39.832C88.9931 39.7367 88.5686 39.5981 88.1528 39.448L85.5741 51.2786C85.5308 51.4807 85.4038 51.6626 85.2218 51.7781C85.0428 51.8965 84.8291 51.9283 84.6154 51.885L83.0186 51.5327C82.6778 51.4605 82.314 51.524 82.0166 51.7146C81.7191 51.9081 81.5055 52.2055 81.4419 52.5578L81.1532 53.8601L91.1242 56.0345L91.4129 54.7322C91.488 54.3914 91.4129 54.0305 91.231 53.7302C91.0404 53.4327 90.7401 53.2306 90.3994 53.1555L88.7909 52.8032C88.3665 52.708 88.0893 52.2806 88.1845 51.8532L88.173 51.8417ZM101.543 20.4531H85.7329L83.8589 29.0698C83.4228 31.0883 83.7953 33.1558 84.9042 34.8942C86.0102 36.6325 87.7485 37.828 89.7612 38.2756C93.9252 39.1823 98.0487 36.5257 98.9554 32.3675L101.543 20.4647V20.4531ZM134.13 54.8939C134.011 55.0758 133.832 55.2029 133.63 55.2462L122.091 57.7613C122.039 57.7729 121.976 57.7844 121.921 57.7844C121.56 57.7844 121.228 57.5274 121.144 57.1549L120.685 55.0758C120.526 54.3077 120.665 53.5165 121.08 52.8668C121.505 52.2055 122.155 51.7464 122.923 51.5876L123.743 51.4056L121.262 39.9937C117.373 39.5779 114.006 36.7307 113.134 32.7082L109.51 16.0379C109.414 15.6106 109.692 15.1832 110.119 15.0879L126.769 11.461C126.971 11.4177 127.194 11.461 127.364 11.5679C127.546 11.6863 127.673 11.8682 127.716 12.0703L131.337 28.7406C131.872 31.172 131.424 33.6669 130.07 35.7691C129.273 37.0166 128.207 38.0186 126.971 38.7549L129.452 50.1697L130.275 49.9878C131.028 49.8174 131.817 49.956 132.478 50.3805C133.139 50.8079 133.595 51.4692 133.757 52.2373L134.213 54.3164C134.257 54.5214 134.213 54.7437 134.109 54.9257L134.13 54.8939ZM111.248 16.4624L111.771 18.8534H127.578L126.342 13.1792L111.248 16.4624ZM123.893 38.264C125.906 37.828 127.632 36.6238 128.75 34.8855C129.868 33.1443 130.24 31.0767 129.792 29.0611L127.918 20.4416H112.111L114.699 32.3444C115.605 36.517 119.726 39.1621 123.893 38.2554V38.264ZM132.501 53.8486L132.212 52.5462C132.137 52.194 131.935 51.8965 131.626 51.7031C131.329 51.5125 130.976 51.4489 130.624 51.524L129.027 51.8763C128.825 51.9167 128.6 51.8763 128.421 51.7695C128.239 51.6511 128.112 51.4692 128.069 51.267L125.49 39.4393C125.074 39.5981 124.65 39.7252 124.211 39.8233C123.763 39.9186 123.327 39.9706 122.891 40.0024L125.47 51.833C125.565 52.2604 125.288 52.6849 124.86 52.783L123.252 53.1324C122.903 53.2075 122.614 53.4096 122.423 53.71C122.23 54.0074 122.166 54.3712 122.241 54.7235L122.53 56.0143L132.501 53.837V53.8486Z"
        fill="#282828"/>
  </g>
</svg>
