<svg viewBox="0 0 303 197" fill="none" xmlns="http://www.w3.org/2000/svg">
  <mask id="mask0_45_68" style="mask-type:luminance" maskUnits="userSpaceOnUse" x="105" y="0" width="198" height="197">
    <path d="M105.304 0H302.68V196.402H105.304V0Z" fill="white"/>
  </mask>
  <g mask="url(#mask0_45_68)">
    <path
        d="M203.767 196.313C201.359 196.313 198.953 196.223 196.551 196.047C194.148 195.868 191.754 195.606 189.372 195.25C186.987 194.898 184.622 194.456 182.271 193.931C179.921 193.402 177.59 192.79 175.286 192.091C172.979 191.392 170.703 190.61 168.457 189.744C166.207 188.877 163.995 187.927 161.818 186.899C159.638 185.868 157.501 184.762 155.405 183.576C153.308 182.389 151.258 181.127 149.257 179.79C147.253 178.45 145.301 177.041 143.401 175.56C141.504 174.081 139.661 172.53 137.874 170.913C136.089 169.296 134.365 167.616 132.705 165.874C131.045 164.13 129.451 162.328 127.92 160.466C126.393 158.606 124.934 156.692 123.548 154.722C122.159 152.753 120.848 150.737 119.61 148.673C118.371 146.608 117.21 144.5 116.124 142.349C115.041 140.198 114.039 138.012 113.118 135.785C112.197 133.562 111.357 131.307 110.6 129.02C109.847 126.736 109.174 124.425 108.59 122.089C108.004 119.753 107.505 117.4 107.095 115.026C106.682 112.655 106.358 110.27 106.122 107.876C105.885 105.48 105.737 103.077 105.68 100.672C105.619 98.2635 105.648 95.8581 105.766 93.4527C105.885 91.0501 106.093 88.6505 106.387 86.2625C106.682 83.8715 107.063 81.4979 107.534 79.1358C108.004 76.7737 108.562 74.4347 109.203 72.1131C109.847 69.7943 110.574 67.4986 111.386 65.2318C112.197 62.965 113.089 60.7329 114.068 58.5325C115.044 56.3293 116.098 54.1693 117.236 52.044C118.371 49.9216 119.584 47.8425 120.872 45.8096C122.162 43.7738 123.522 41.79 124.958 39.8582C126.393 37.9235 127.897 36.0437 129.471 34.2216C131.045 32.3995 132.685 30.6351 134.389 28.9343C135.523 27.7937 136.684 26.682 137.874 25.5991C139.061 24.5162 140.276 23.4622 141.518 22.44C142.757 21.4149 144.022 20.4245 145.312 19.4629C146.603 18.5013 147.914 17.5715 149.251 16.6763C150.585 15.7783 151.942 14.9149 153.32 14.0861C154.697 13.2545 156.095 12.4604 157.513 11.698C158.928 10.9357 160.363 10.2109 161.815 9.52076C163.271 8.82773 164.738 8.17512 166.222 7.55428C167.709 6.93633 169.208 6.35592 170.721 5.81015C172.234 5.26439 173.761 4.75906 175.301 4.28837C176.837 3.81769 178.387 3.38743 179.947 2.99183C181.506 2.59911 183.074 2.24393 184.654 1.92629C186.23 1.61154 187.816 1.33144 189.404 1.09465C190.995 0.854978 192.592 0.655731 194.191 0.494024C195.794 0.335204 197.397 0.213923 199.005 0.13307C200.611 0.0522154 202.219 0.00890224 203.827 0.00601405C205.436 0.0031266 207.044 0.0406662 208.653 0.118632C210.258 0.19371 211.864 0.309216 213.463 0.465147C215.066 0.62108 216.663 0.817439 218.254 1.05134C219.845 1.28523 221.43 1.55667 223.007 1.86854C224.587 2.1804 226.157 2.5298 227.717 2.91963C229.279 3.30946 230.83 3.73683 232.369 4.20174C233.908 4.66665 235.435 5.1691 236.951 5.70909C238.467 6.24907 239.969 6.8266 241.456 7.44166C242.94 8.05673 244.413 8.70645 245.868 9.39082C247.321 10.0781 248.759 10.8 250.18 11.5565C251.598 12.3131 252.998 13.1072 254.378 13.9331C255.759 14.7589 257.119 15.6166 258.456 16.5088C259.793 17.4011 261.109 18.328 262.4 19.2838C263.694 20.2425 264.961 21.2301 266.206 22.2494C267.451 23.2688 268.666 24.3199 269.859 25.3998C271.052 26.4798 272.218 27.5858 273.356 28.7235C274.494 29.8612 275.602 31.025 276.682 32.2147C277.762 33.4072 278.813 34.6229 279.833 35.8675C280.852 37.1092 281.843 38.3769 282.801 39.6705C283.757 40.9613 284.684 42.2752 285.576 43.6121C286.471 44.9491 287.329 46.3063 288.158 47.6866C288.984 49.0669 289.775 50.4645 290.531 51.8823C291.291 53.303 292.013 54.7382 292.7 56.1907C293.387 57.646 294.037 59.1158 294.652 60.6001C295.267 62.0872 295.845 63.5859 296.385 65.1019C296.925 66.615 297.427 68.1426 297.895 69.6817C298.36 71.2208 298.787 72.7686 299.177 74.3279C299.567 75.8901 299.916 77.4581 300.228 79.0347C300.54 80.6114 300.814 82.1967 301.048 83.7849C301.282 85.376 301.476 86.9728 301.632 88.5726C301.787 90.1723 301.903 91.7749 301.981 93.3805C302.056 94.986 302.094 96.5944 302.091 98.2028C302.091 99.8083 302.047 101.417 301.966 103.022C301.886 104.628 301.764 106.23 301.603 107.83C301.444 109.43 301.242 111.024 301.005 112.615C300.765 114.203 300.488 115.786 300.17 117.362C299.853 118.939 299.498 120.507 299.105 122.066C298.709 123.626 298.279 125.173 297.808 126.71C297.338 128.249 296.829 129.773 296.284 131.284C295.738 132.797 295.157 134.295 294.537 135.78C293.919 137.264 293.263 138.731 292.573 140.183C291.88 141.636 291.155 143.068 290.393 144.486C289.631 145.901 288.834 147.298 288.005 148.673C287.173 150.05 286.31 151.407 285.412 152.742C284.514 154.076 283.584 155.387 282.622 156.674C281.661 157.965 280.667 159.227 279.645 160.469C278.62 161.708 277.566 162.923 276.48 164.11C275.397 165.297 274.286 166.458 273.145 167.593C270.878 169.871 268.505 172.031 266.024 174.072C263.544 176.117 260.968 178.031 258.297 179.819C255.626 181.609 252.874 183.261 250.041 184.777C247.205 186.293 244.303 187.667 241.335 188.895C238.364 190.125 235.34 191.205 232.265 192.135C229.19 193.067 226.074 193.841 222.92 194.465C219.767 195.089 216.588 195.554 213.388 195.863C210.189 196.171 206.984 196.322 203.767 196.313ZM203.767 3.86678C151.677 3.86678 109.304 46.211 109.304 98.2663C109.304 150.319 151.677 192.66 203.767 192.66C255.857 192.66 298.227 150.313 298.227 98.2663C298.227 46.2168 255.854 3.86678 203.767 3.86678Z"
        fill="#282828"/>
  </g>
  <mask id="mask1_45_68" style="mask-type:luminance" maskUnits="userSpaceOnUse" x="0" y="0" width="198" height="197">
    <path d="M0.333252 0H197.709V197H0.333252V0Z" fill="white"/>
  </mask>
  <g mask="url(#mask1_45_68)">
    <path
        d="M98.816 196.908C96.4077 196.908 94.0023 196.818 91.5969 196.642C89.1944 196.466 86.8034 196.2 84.4183 195.848C82.036 195.493 79.6681 195.054 77.3176 194.525C74.967 194 72.6396 193.385 70.3353 192.686C68.0281 191.987 65.7526 191.204 63.5031 190.338C61.2566 189.472 59.0418 188.525 56.8645 187.494C54.6872 186.466 52.5504 185.357 50.4539 184.17C48.3575 182.983 46.3073 181.721 44.3033 180.384C42.3022 179.048 40.3501 177.638 38.4501 176.157C36.55 174.676 34.7077 173.128 32.9231 171.511C31.1386 169.894 29.4147 168.213 27.7543 166.469C26.091 164.725 24.497 162.923 22.9695 161.063C21.4419 159.201 19.9837 157.286 18.5947 155.317C17.2086 153.35 15.8948 151.332 14.656 149.267C13.4172 147.203 12.2563 145.095 11.1735 142.943C10.0906 140.795 9.08862 138.606 8.16457 136.383C7.24342 134.156 6.40601 131.904 5.64945 129.617C4.89289 127.33 4.22296 125.02 3.63677 122.684C3.05347 120.348 2.55391 117.994 2.14098 115.624C1.73093 113.25 1.40463 110.868 1.17073 108.471C0.933946 106.074 0.786676 103.675 0.726036 101.266C0.668283 98.8609 0.69716 96.4555 0.815552 94.0501C0.933945 91.6447 1.13897 89.2479 1.43639 86.857C1.73093 84.4689 2.1121 82.0924 2.58278 79.7332C3.05347 77.3711 3.60789 75.0292 4.25183 72.7105C4.89289 70.3888 5.62057 68.096 6.432 65.8293C7.24342 63.5625 8.13859 61.3274 9.11461 59.1271C10.0906 56.9267 11.1475 54.7638 12.2823 52.6414C13.4201 50.5161 14.63 48.4399 15.9208 46.4042C17.2086 44.3713 18.5716 42.3875 20.0068 40.4527C21.4419 38.518 22.9464 36.6411 24.5201 34.819C26.0939 32.994 27.7312 31.2325 29.4349 29.5288C30.5697 28.3882 31.7305 27.2765 32.9202 26.1936C34.1099 25.1108 35.3256 24.0597 36.5644 23.0346C37.8061 22.0123 39.0709 21.019 40.3617 20.0574C41.6495 19.0958 42.9634 18.1689 44.2975 17.2708C45.6345 16.3728 46.9888 15.5094 48.3691 14.6806C49.7465 13.8519 51.1441 13.0549 52.559 12.2926C53.9768 11.5331 55.412 10.8054 56.8645 10.1153C58.317 9.42514 59.7868 8.76965 61.271 8.1517C62.7552 7.53374 64.2568 6.95044 65.7699 6.40468C67.2831 5.8618 68.8077 5.35358 70.3468 4.8829C71.8859 4.4151 73.4366 3.98196 74.9959 3.58924C76.5552 3.19363 78.1232 2.83845 79.6999 2.5237C81.2794 2.20606 82.8618 1.92885 84.4529 1.68918C86.044 1.4495 87.6409 1.25026 89.2406 1.09144C90.8404 0.929729 92.4459 0.808448 94.0514 0.727594C95.6598 0.646741 97.2682 0.603426 98.8766 0.603426C100.485 0.600539 102.093 0.638078 103.699 0.713156C105.307 0.791122 106.91 0.906627 108.513 1.06256C110.112 1.21849 111.709 1.41196 113.3 1.64586C114.894 1.87976 116.477 2.15408 118.056 2.46595C119.636 2.77781 121.204 3.12722 122.766 3.51705C124.325 3.90399 125.876 4.33136 127.418 4.79627C128.957 5.26118 130.485 5.76651 132.001 6.3065C133.514 6.84649 135.015 7.42401 136.502 8.03619C137.99 8.65126 139.459 9.30097 140.915 9.98823C142.37 10.6755 143.808 11.3974 145.226 12.154C146.647 12.9105 148.047 13.7017 149.428 14.5276C150.808 15.3534 152.165 16.214 153.505 17.1062C154.842 17.9985 156.156 18.9226 157.449 19.8813C158.743 20.8371 160.011 21.8275 161.255 22.8469C162.497 23.8662 163.716 24.9144 164.908 25.9944C166.101 27.0743 167.264 28.1832 168.402 29.318C169.54 30.4558 170.649 31.6195 171.729 32.8121C172.809 34.0018 173.86 35.2204 174.882 36.462C175.901 37.7066 176.889 38.9743 177.848 40.265C178.806 41.5558 179.733 42.8697 180.625 44.2067C181.518 45.5436 182.378 46.9037 183.204 48.284C184.03 49.6614 184.824 51.0619 185.581 52.4797C186.337 53.8976 187.062 55.3327 187.746 56.7881C188.434 58.2406 189.086 59.7104 189.701 61.1975C190.313 62.6817 190.891 64.1833 191.434 65.6964C191.974 67.2095 192.476 68.7371 192.941 70.2762C193.409 71.8153 193.836 73.366 194.223 74.9253C194.613 76.4846 194.965 78.0526 195.277 79.6292C195.589 81.2059 195.861 82.7912 196.095 84.3823C196.331 85.9734 196.525 87.5673 196.681 89.1671C196.837 90.7668 196.952 92.3724 197.03 93.9779C197.105 95.5834 197.143 97.1889 197.14 98.7973C197.137 100.406 197.097 102.011 197.013 103.617C196.932 105.222 196.811 106.825 196.652 108.425C196.49 110.024 196.291 111.618 196.051 113.21C195.814 114.801 195.534 116.383 195.22 117.96C194.902 119.536 194.547 121.101 194.151 122.661C193.758 124.22 193.325 125.768 192.855 127.307C192.387 128.843 191.879 130.368 191.333 131.881C190.787 133.394 190.204 134.893 189.586 136.374C188.968 137.858 188.312 139.328 187.619 140.778C186.929 142.23 186.202 143.665 185.442 145.08C184.68 146.495 183.883 147.893 183.051 149.27C182.222 150.648 181.356 152.002 180.461 153.336C179.563 154.67 178.633 155.981 177.671 157.272C176.71 158.56 175.717 159.825 174.691 161.063C173.666 162.305 172.612 163.518 171.529 164.705C170.447 165.894 169.332 167.055 168.191 168.187C165.925 170.465 163.551 172.625 161.07 174.67C158.59 176.711 156.014 178.629 153.346 180.416C150.675 182.204 147.923 183.855 145.087 185.374C142.255 186.89 139.353 188.262 136.384 189.492C133.413 190.722 130.389 191.802 127.314 192.732C124.236 193.662 121.12 194.439 117.967 195.062C114.813 195.683 111.637 196.148 108.438 196.457C105.238 196.766 102.03 196.916 98.816 196.908ZM98.816 4.46419C46.726 4.46419 4.3529 46.8084 4.3529 98.8609C4.3529 150.913 46.726 193.255 98.816 193.255C150.906 193.255 193.276 150.91 193.276 98.8609C193.276 46.8113 150.903 4.46419 98.816 4.46419Z"
        fill="#282828"/>
  </g>
  <path
      d="M227.252 105.306C227.252 105.237 227.327 105.202 227.483 105.202C227.59 105.202 227.691 105.223 227.784 105.26C227.876 105.292 227.922 105.347 227.922 105.422C227.59 107.755 227.425 110.198 227.425 112.745C227.425 113.039 227.359 113.25 227.229 113.38C227.096 113.513 226.865 113.577 226.536 113.577H203.296C203.218 113.577 203.181 113.467 203.181 113.242C203.181 113.019 203.218 112.907 203.296 112.907C204.697 112.907 205.722 112.814 206.369 112.629C207.016 112.445 207.457 112.087 207.697 111.555C207.943 111.018 208.067 110.192 208.067 109.083V83.395C208.067 82.2862 207.943 81.4747 207.697 80.9578C207.457 80.4439 207.016 80.0858 206.369 79.8837C205.722 79.6757 204.697 79.5718 203.296 79.5718C203.218 79.5718 203.181 79.4621 203.181 79.2368C203.181 79.0145 203.218 78.9019 203.296 78.9019H225.589C225.927 78.9019 226.097 79.0693 226.097 79.3985L226.201 86.2249C226.201 86.3404 226.109 86.4068 225.924 86.4212C225.739 86.4386 225.626 86.3924 225.589 86.2826C225.479 84.3191 224.887 82.7944 223.81 81.7086C222.739 80.6171 221.318 80.0685 219.548 80.0685H216.164C214.87 80.0685 213.914 80.1724 213.299 80.3803C212.69 80.5825 212.265 80.9319 212.029 81.4314C211.789 81.9339 211.671 82.6789 211.671 83.6722V94.934H218.439C220.209 94.934 221.471 94.6394 222.228 94.0446C222.99 93.4526 223.371 92.4564 223.371 91.053C223.371 90.9779 223.481 90.9375 223.706 90.9375C223.929 90.9375 224.041 90.9779 224.041 91.053L223.983 95.5462C223.983 96.6175 224.001 97.4289 224.041 97.9833L224.099 100.651C224.099 100.729 223.986 100.767 223.764 100.767C223.539 100.767 223.429 100.729 223.429 100.651C223.429 99.0286 223.028 97.8649 222.228 97.1632C221.434 96.4558 220.114 96.1006 218.266 96.1006H211.671V108.864C211.671 109.898 211.777 110.654 211.994 111.139C212.216 111.619 212.623 111.948 213.218 112.133C213.81 112.318 214.734 112.41 215.99 112.41H220.437C222.208 112.41 223.686 111.783 224.873 110.527C226.057 109.274 226.851 107.533 227.252 105.306Z"
      fill="#282828"/>
  <path
      d="M245.171 85.3934C245.171 86.8343 245.521 88.0933 246.222 89.1704C246.93 90.2417 247.782 91.1398 248.775 91.8617C249.774 92.5778 251.183 93.4903 253.002 94.5991C254.92 95.7484 256.413 96.71 257.484 97.4868C258.561 98.2664 259.477 99.254 260.233 100.455C260.995 101.657 261.377 103.089 261.377 104.752C261.377 106.531 260.929 108.145 260.037 109.592C259.15 111.033 257.848 112.167 256.133 112.999C254.414 113.831 252.35 114.247 249.942 114.247C247.1 114.247 244.493 113.6 242.122 112.306C241.937 112.191 241.816 112.061 241.764 111.913C241.709 111.769 241.663 111.544 241.625 111.243L240.909 103.701C240.869 103.557 240.949 103.464 241.152 103.424C241.36 103.386 241.478 103.441 241.51 103.585C242.102 106.251 243.202 108.546 244.813 110.47C246.422 112.396 248.558 113.357 251.224 113.357C253.072 113.357 254.634 112.849 255.913 111.833C257.19 110.816 257.831 109.196 257.831 106.97C257.831 105.306 257.455 103.868 256.71 102.65C255.971 101.426 255.073 100.418 254.019 99.6236C252.971 98.8324 251.538 97.8968 249.722 96.8168C247.949 95.7484 246.557 94.8244 245.541 94.0447C244.524 93.2679 243.661 92.289 242.953 91.1109C242.252 89.927 241.902 88.5409 241.902 86.9527C241.902 85.0988 242.39 83.5164 243.369 82.2054C244.354 80.8887 245.633 79.9069 247.204 79.26C248.775 78.6132 250.444 78.2898 252.217 78.2898C254.403 78.2898 256.566 78.7374 258.708 79.6297C259.263 79.8145 259.54 80.1263 259.54 80.5652L259.933 86.9527C259.933 87.1 259.84 87.1722 259.656 87.1722C259.471 87.1722 259.358 87.1 259.321 86.9527C259.026 85.0295 258.235 83.2421 256.941 81.5932C255.648 79.9473 253.779 79.1214 251.339 79.1214C249.266 79.1214 247.718 79.7278 246.696 80.9349C245.679 82.1361 245.171 83.6233 245.171 85.3934Z"
      fill="#282828"/>
  <path
      d="M36.4915 85.4788C36.4915 86.9197 36.8409 88.1788 37.5426 89.2558C38.2501 90.3272 39.1019 91.2252 40.0953 91.9471C41.0944 92.6632 42.5035 93.5757 44.3227 94.6846C46.2401 95.8339 47.733 96.7954 48.8044 97.5722C49.8814 98.3519 50.7968 99.3395 51.5534 100.541C52.3157 101.742 52.6969 103.174 52.6969 104.838C52.6969 106.616 52.2493 108.23 51.357 109.677C50.4705 111.118 49.1682 112.253 47.4529 113.085C45.7348 113.916 43.6701 114.332 41.2619 114.332C38.4204 114.332 35.8129 113.685 33.4422 112.392C33.2573 112.276 33.1361 112.146 33.0841 111.999C33.0292 111.854 32.983 111.629 32.9455 111.329L32.2293 103.786C32.1889 103.642 32.2698 103.55 32.4719 103.509C32.6798 103.472 32.7982 103.527 32.83 103.671C33.4219 106.336 34.5221 108.632 36.1334 110.555C37.7418 112.481 39.8787 113.443 42.544 113.443C44.392 113.443 45.9543 112.934 47.2335 111.918C48.5098 110.902 49.1509 109.282 49.1509 107.055C49.1509 105.392 48.7755 103.954 48.0305 102.735C47.2912 101.511 46.3932 100.503 45.3392 99.7091C44.291 98.9179 42.8587 97.9823 41.0424 96.9023C39.2694 95.8339 37.8776 94.9098 36.8611 94.1302C35.8447 93.3534 34.9813 92.3745 34.2738 91.1963C33.5721 90.0124 33.2227 88.6263 33.2227 87.0381C33.2227 85.1843 33.7107 83.6019 34.6896 82.2909C35.6743 80.9741 36.9535 79.9923 38.5244 79.3455C40.0953 78.6987 41.7643 78.3752 43.5373 78.3752C45.7232 78.3752 47.8861 78.8228 50.0287 79.7151C50.5831 79.8999 50.8603 80.2118 50.8603 80.6507L51.2531 87.0381C51.2531 87.1854 51.1607 87.2576 50.9759 87.2576C50.791 87.2576 50.6784 87.1854 50.6409 87.0381C50.3463 85.115 49.5551 83.3275 48.2615 81.6787C46.9678 80.0327 45.0995 79.2069 42.6595 79.2069C40.5862 79.2069 39.0384 79.8133 38.0162 81.0203C36.9997 82.2216 36.4915 83.7087 36.4915 85.4788Z"
      fill="#282828"/>
  <path
      d="M100.902 112.992C101.055 112.992 101.133 113.105 101.133 113.327C101.133 113.552 101.055 113.662 100.902 113.662C100.2 113.662 99.1115 113.624 97.633 113.546C96.1545 113.477 95.0803 113.443 94.4104 113.443C93.6019 113.443 92.5652 113.477 91.3033 113.546C90.1252 113.624 89.2184 113.662 88.5889 113.662C88.4417 113.662 88.3695 113.552 88.3695 113.327C88.3695 113.105 88.4417 112.992 88.5889 112.992C89.9577 112.992 90.9568 112.865 91.5805 112.611C92.21 112.351 92.5277 111.903 92.5277 111.271C92.5277 110.757 92.288 109.963 91.8115 108.892L85.4241 95.2967H74.9362L70.1659 106.616C69.649 107.872 69.392 108.909 69.392 109.723C69.392 111.903 71.2054 112.992 74.8323 112.992C75.0171 112.992 75.1095 113.105 75.1095 113.327C75.1095 113.552 75.0171 113.662 74.8323 113.662C74.1623 113.662 73.1979 113.624 71.9446 113.546C70.5412 113.477 69.3227 113.443 68.2831 113.443C67.3186 113.443 66.2098 113.477 64.9566 113.546C63.8477 113.624 62.9237 113.662 62.1844 113.662C61.9996 113.662 61.9072 113.552 61.9072 113.327C61.9072 113.105 61.9996 112.992 62.1844 112.992C63.2153 112.992 64.0932 112.801 64.818 112.415C65.5399 112.03 66.2271 111.349 66.874 110.37C67.5208 109.385 68.2311 107.968 69.0108 106.12L80.7115 78.4906C80.7866 78.3751 80.9194 78.3174 81.1042 78.3174C81.289 78.3174 81.3959 78.3751 81.4276 78.4906L94.5259 106.062C95.7791 108.796 96.8505 110.636 97.737 111.583C98.6292 112.524 99.6832 112.992 100.902 112.992ZM75.4444 94.1301H84.8697L79.8798 83.596L75.4444 94.1301Z"
      fill="#282828"/>
  <mask id="mask2_45_68" style="mask-type:luminance" maskUnits="userSpaceOnUse" x="122" y="77" width="34" height="44">
    <path d="M122.307 77.6194H155.572V120.495H122.307V77.6194Z" fill="white"/>
  </mask>
  <g mask="url(#mask2_45_68)">
    <mask id="mask3_45_68" style="mask-type:luminance" maskUnits="userSpaceOnUse" x="116" y="77" width="40" height="45">
      <path d="M125.769 77.5039L155.893 84.9598L146.84 121.537L116.716 114.084L125.769 77.5039Z" fill="white"/>
    </mask>
    <g mask="url(#mask3_45_68)">
      <mask id="mask4_45_68" style="mask-type:luminance" maskUnits="userSpaceOnUse" x="116" y="77" width="40"
            height="45">
        <path d="M125.769 77.5039L155.893 84.9598L146.84 121.537L116.716 114.084L125.769 77.5039Z" fill="white"/>
      </mask>
      <g mask="url(#mask4_45_68)">
        <mask id="mask5_45_68" style="mask-type:luminance" maskUnits="userSpaceOnUse" x="116" y="77" width="40"
              height="45">
          <path d="M125.769 77.5039L155.893 84.9598L146.84 121.537L116.716 114.084L125.769 77.5039Z" fill="white"/>
        </mask>
        <g mask="url(#mask5_45_68)">
          <path
              d="M146.167 93.5649L154.923 86.5537C155.639 85.9791 155.402 84.8385 154.515 84.619L140.837 81.2347L127.158 77.8475C126.272 77.628 125.515 78.5261 125.882 79.3693L130.346 89.6521L135.111 100.622L132.102 112.776C131.83 113.409 130.693 116.112 128.38 116.195L122.552 114.754L122.37 115.482L141.154 120.131L141.333 119.403L135.555 117.971C133.548 116.819 133.791 113.894 133.811 113.201L136.82 101.041L146.167 93.5649ZM127.585 79.4646L140.484 82.6583L153.384 85.8491L145.679 92.046L146.029 91.7428C146.029 91.7428 141.166 93.8623 138.61 89.7157C136.055 85.5661 131.235 87.882 131.235 87.882L127.585 79.4646Z"
              fill="#282828"/>
        </g>
      </g>
    </g>
  </g>
  <mask id="mask6_45_68" style="mask-type:luminance" maskUnits="userSpaceOnUse" x="145" y="77" width="35" height="44">
    <path d="M145.962 77.6194H179.967V120.495H145.962V77.6194Z" fill="white"/>
  </mask>
  <g mask="url(#mask6_45_68)">
    <mask id="mask7_45_68" style="mask-type:luminance" maskUnits="userSpaceOnUse" x="145" y="77" width="40" height="45">
      <path d="M145.774 84.9915L175.892 77.5183L184.968 114.09L154.85 121.566L145.774 84.9915Z" fill="white"/>
    </mask>
    <g mask="url(#mask7_45_68)">
      <mask id="mask8_45_68" style="mask-type:luminance" maskUnits="userSpaceOnUse" x="145" y="77" width="41"
            height="45">
        <path d="M176.002 77.4893L145.882 84.9653L154.96 121.537L185.078 114.064L176.002 77.4893Z" fill="white"/>
      </mask>
      <g mask="url(#mask8_45_68)">
        <mask id="mask9_45_68" style="mask-type:luminance" maskUnits="userSpaceOnUse" x="145" y="77" width="41"
              height="45">
          <path d="M176.002 77.4893L145.882 84.9653L154.96 121.537L185.078 114.064L176.002 77.4893Z" fill="white"/>
        </mask>
        <g mask="url(#mask9_45_68)">
          <path
              d="M155.613 93.565L146.855 86.5596C146.138 85.985 146.372 84.8444 147.259 84.6249L160.935 81.2291L174.61 77.8361C175.497 77.6166 176.253 78.5118 175.89 79.355L171.431 89.6407L166.675 100.617L169.69 112.768C169.961 113.4 171.102 116.1 173.415 116.184L179.242 114.737L179.424 115.468L160.643 120.128L160.464 119.398L166.242 117.966C168.246 116.808 168.004 113.885 167.983 113.192L164.966 101.032L155.613 93.565ZM174.186 79.4532L161.29 82.6527L148.394 85.8551L156.101 92.0461L155.751 91.7401C155.751 91.7401 160.614 93.8596 163.167 89.71C165.719 85.5605 170.542 87.8706 170.542 87.8706L174.186 79.4532Z"
              fill="#282828"/>
        </g>
      </g>
    </g>
  </g>
  <mask id="mask10_45_68" style="mask-type:luminance" maskUnits="userSpaceOnUse" x="123" y="69" width="56" height="11">
    <path d="M123.782 69.7681H178.645V79.7419H123.782V69.7681Z" fill="white"/>
  </mask>
  <g mask="url(#mask10_45_68)">
    <path
        d="M151.96 70.5218V79.0547C151.96 79.4908 151.596 79.8546 151.16 79.8546C150.724 79.8546 150.36 79.4908 150.36 79.0547V70.5218C150.36 70.0829 150.724 69.7219 151.16 69.7219C151.596 69.7219 151.96 70.0829 151.96 70.5218ZM155.899 79.5861C156.144 79.5861 156.401 79.4706 156.552 79.2453L160.459 73.7531C160.716 73.3892 160.629 72.8897 160.268 72.6327C159.907 72.3757 159.405 72.4623 159.15 72.8232L155.241 78.3184C154.984 78.6794 155.07 79.1818 155.431 79.4388C155.57 79.5341 155.729 79.5861 155.89 79.5861H155.899ZM145.769 79.2453C145.931 79.4706 146.173 79.5861 146.419 79.5861C146.581 79.5861 146.739 79.5428 146.878 79.4388C147.239 79.1818 147.326 78.6794 147.069 78.3184L143.159 72.8232C142.905 72.4623 142.402 72.3757 142.041 72.6327C141.68 72.8897 141.594 73.3892 141.851 73.7531L145.758 79.2453H145.769ZM148.475 85.0264L144.854 101.697C143.979 105.719 140.615 108.578 136.725 108.982L134.245 120.394L135.073 120.576C135.83 120.738 136.491 121.194 136.919 121.855C137.331 122.516 137.482 123.296 137.323 124.064L136.864 126.143C136.78 126.519 136.448 126.773 136.087 126.773C136.032 126.773 135.969 126.773 135.917 126.753L124.38 124.235C124.175 124.191 123.996 124.064 123.878 123.882C123.762 123.7 123.728 123.49 123.771 123.276L124.23 121.194C124.389 120.426 124.848 119.776 125.51 119.349C126.168 118.924 126.956 118.786 127.724 118.956L128.533 119.138L131.016 107.723C129.78 106.987 128.715 105.985 127.915 104.737C126.572 102.635 126.116 100.14 126.647 97.7088L130.271 81.0386C130.312 80.8335 130.442 80.6545 130.621 80.5361C130.803 80.4177 131.016 80.3859 131.218 80.4293L147.868 84.0561C148.304 84.1514 148.57 84.5788 148.475 85.0062V85.0264ZM130.418 87.8534H146.228L146.751 85.4624L131.654 82.1792L130.418 87.8534ZM132.506 120.842L135.085 109.014C134.649 108.982 134.201 108.93 133.765 108.832C133.326 108.737 132.902 108.598 132.486 108.448L129.907 120.279C129.864 120.481 129.737 120.663 129.555 120.778C129.376 120.897 129.162 120.928 128.949 120.885L127.352 120.533C127.011 120.46 126.647 120.524 126.35 120.715C126.052 120.908 125.839 121.206 125.775 121.558L125.486 122.86L135.457 125.035L135.746 123.732C135.821 123.391 135.746 123.03 135.564 122.73C135.374 122.433 135.073 122.231 134.733 122.156L133.124 121.803C132.7 121.708 132.423 121.281 132.518 120.853L132.506 120.842ZM145.876 89.4531H130.066L128.192 98.0698C127.756 100.088 128.129 102.156 129.237 103.894C130.343 105.633 132.082 106.828 134.094 107.276C138.258 108.182 142.382 105.526 143.289 101.367L145.876 89.4647V89.4531ZM178.463 123.894C178.345 124.076 178.165 124.203 177.963 124.246L166.424 126.761C166.372 126.773 166.309 126.784 166.254 126.784C165.893 126.784 165.561 126.527 165.477 126.155L165.018 124.076C164.859 123.308 164.998 122.516 165.414 121.867C165.838 121.206 166.488 120.746 167.256 120.588L168.076 120.406L165.596 108.994C161.706 108.578 158.339 105.731 157.467 101.708L153.843 85.0379C153.748 84.6106 154.025 84.1832 154.452 84.0879L171.102 80.461C171.304 80.4177 171.527 80.461 171.697 80.5679C171.879 80.6863 172.006 80.8682 172.049 81.0703L175.671 97.7406C176.205 100.172 175.757 102.667 174.403 104.769C173.606 106.017 172.54 107.019 171.304 107.755L173.785 119.17L174.608 118.988C175.362 118.817 176.15 118.956 176.811 119.381C177.472 119.808 177.929 120.469 178.09 121.237L178.547 123.316C178.59 123.521 178.547 123.744 178.443 123.926L178.463 123.894ZM155.581 85.4624L156.104 87.8534H171.911L170.675 82.1792L155.581 85.4624ZM168.226 107.264C170.239 106.828 171.966 105.624 173.083 103.885C174.201 102.144 174.573 100.077 174.126 98.0611L172.252 89.4416H156.445L159.032 101.344C159.939 105.517 164.059 108.162 168.226 107.255V107.264ZM176.834 122.849L176.546 121.546C176.47 121.194 176.268 120.897 175.959 120.703C175.662 120.512 175.31 120.449 174.957 120.524L173.36 120.876C173.158 120.917 172.933 120.876 172.754 120.769C172.572 120.651 172.445 120.469 172.402 120.267L169.823 108.439C169.407 108.598 168.983 108.725 168.544 108.823C168.096 108.919 167.66 108.971 167.224 109.002L169.803 120.833C169.898 121.26 169.621 121.685 169.194 121.783L167.585 122.132C167.236 122.208 166.947 122.41 166.756 122.71C166.563 123.007 166.499 123.371 166.575 123.724L166.863 125.014L176.834 122.837V122.849Z"
        fill="#282828"/>
  </g>
</svg>
